<svg width="58" height="13" viewBox="0 0 58 13" fill="none" xmlns="http://www.w3.org/2000/svg">
<path d="M0.824 12V0.799999H5.384C6.57867 0.799999 7.624 1.04 8.52 1.52C9.42667 1.98933 10.1307 2.64533 10.632 3.488C11.1333 4.33067 11.384 5.30133 11.384 6.4C11.384 7.49867 11.1333 8.46933 10.632 9.312C10.1307 10.1547 9.42667 10.816 8.52 11.296C7.624 11.7653 6.57867 12 5.384 12H0.824ZM2.008 10.976H5.32C6.312 10.976 7.17067 10.784 7.896 10.4C8.632 10.0053 9.20267 9.46667 9.608 8.784C10.0133 8.09067 10.216 7.296 10.216 6.4C10.216 5.49333 10.0133 4.69867 9.608 4.016C9.20267 3.33333 8.632 2.8 7.896 2.416C7.17067 2.02133 6.312 1.824 5.32 1.824H2.008V10.976ZM18.6508 12.08C17.7761 12.08 17.0081 11.8987 16.3467 11.536C15.6854 11.1627 15.1681 10.656 14.7947 10.016C14.4214 9.36533 14.2347 8.624 14.2347 7.792C14.2347 6.96 14.4107 6.224 14.7627 5.584C15.1254 4.944 15.6161 4.44267 16.2347 4.08C16.8641 3.70667 17.5681 3.52 18.3467 3.52C19.1361 3.52 19.8347 3.70133 20.4427 4.064C21.0614 4.416 21.5468 4.91733 21.8988 5.568C22.2508 6.208 22.4268 6.94933 22.4268 7.792C22.4268 7.84533 22.4214 7.904 22.4108 7.968C22.4108 8.02133 22.4108 8.08 22.4108 8.144H15.0987V7.296H21.8028L21.3548 7.632C21.3548 7.024 21.2214 6.48533 20.9548 6.016C20.6988 5.536 20.3468 5.16267 19.8987 4.896C19.4507 4.62933 18.9334 4.496 18.3467 4.496C17.7707 4.496 17.2534 4.62933 16.7947 4.896C16.3361 5.16267 15.9787 5.536 15.7227 6.016C15.4667 6.496 15.3387 7.04533 15.3387 7.664V7.84C15.3387 8.48 15.4774 9.04533 15.7547 9.536C16.0427 10.016 16.4374 10.3947 16.9387 10.672C17.4507 10.9387 18.0321 11.072 18.6827 11.072C19.1947 11.072 19.6694 10.9813 20.1068 10.8C20.5547 10.6187 20.9387 10.3413 21.2587 9.968L21.8988 10.704C21.5254 11.152 21.0561 11.4933 20.4907 11.728C19.9361 11.9627 19.3228 12.08 18.6508 12.08ZM28.0227 12L24.2947 3.6H25.4787L28.9027 11.392H28.3427L31.8147 3.6H32.9347L29.1907 12H28.0227Z" fill="white"/>
<path d="M40.8416 12.096C39.9883 12.096 39.199 11.9573 38.4736 11.68C37.759 11.392 37.135 10.992 36.6016 10.48C36.079 9.968 35.6683 9.36533 35.3696 8.672C35.0816 7.97867 34.9376 7.22133 34.9376 6.4C34.9376 5.57867 35.0816 4.82133 35.3696 4.128C35.6683 3.43467 36.0843 2.832 36.6176 2.32C37.151 1.808 37.775 1.41333 38.4896 1.136C39.215 0.848 40.0043 0.704 40.8576 0.704C41.711 0.704 42.4896 0.837333 43.1936 1.104C43.9083 1.37067 44.5163 1.776 45.0176 2.32L44.2816 3.072C43.8123 2.60267 43.295 2.26667 42.7296 2.064C42.1643 1.86133 41.5563 1.76 40.9056 1.76C40.2123 1.76 39.5723 1.87733 38.9856 2.112C38.4096 2.336 37.903 2.66133 37.4656 3.088C37.039 3.504 36.703 3.99467 36.4576 4.56C36.223 5.11467 36.1056 5.728 36.1056 6.4C36.1056 7.06133 36.223 7.67467 36.4576 8.24C36.703 8.80533 37.039 9.30133 37.4656 9.728C37.903 10.144 38.4096 10.4693 38.9856 10.704C39.5723 10.928 40.207 11.04 40.8896 11.04C41.5296 11.04 42.1323 10.944 42.6976 10.752C43.2736 10.56 43.8016 10.2347 44.2816 9.776L44.9536 10.672C44.4203 11.1413 43.7963 11.4987 43.0816 11.744C42.367 11.9787 41.6203 12.096 40.8416 12.096ZM43.8176 10.528V6.4H44.9536V10.672L43.8176 10.528ZM52.7686 12.08C51.958 12.08 51.2273 11.8987 50.5766 11.536C49.9366 11.1627 49.43 10.656 49.0566 10.016C48.6833 9.36533 48.4966 8.624 48.4966 7.792C48.4966 6.94933 48.6833 6.208 49.0566 5.568C49.43 4.928 49.9366 4.42667 50.5766 4.064C51.2166 3.70133 51.9473 3.52 52.7686 3.52C53.6006 3.52 54.3366 3.70133 54.9766 4.064C55.6273 4.42667 56.134 4.928 56.4966 5.568C56.87 6.208 57.0566 6.94933 57.0566 7.792C57.0566 8.624 56.87 9.36533 56.4966 10.016C56.134 10.656 55.6273 11.1627 54.9766 11.536C54.326 11.8987 53.59 12.08 52.7686 12.08ZM52.7686 11.072C53.3766 11.072 53.9153 10.9387 54.3846 10.672C54.854 10.3947 55.222 10.0107 55.4886 9.52C55.766 9.01867 55.9046 8.44267 55.9046 7.792C55.9046 7.13067 55.766 6.55467 55.4886 6.064C55.222 5.57333 54.854 5.19467 54.3846 4.928C53.9153 4.65067 53.382 4.512 52.7846 4.512C52.1873 4.512 51.654 4.65067 51.1846 4.928C50.7153 5.19467 50.342 5.57333 50.0646 6.064C49.7873 6.55467 49.6486 7.13067 49.6486 7.792C49.6486 8.44267 49.7873 9.01867 50.0646 9.52C50.342 10.0107 50.7153 10.3947 51.1846 10.672C51.654 10.9387 52.182 11.072 52.7686 11.072Z" fill="#478CBF"/>
</svg>
